<?xml version='1.0' encoding='UTF-8'?>
<mxfile version="1.0" encoding="UTF-8"><diagram name="ArchiMate Model" id="archimate_diagram"><mxGraphModel dx="1050" dy="522" grid="1" gridSize="10"><root><mxCell id="0" /><mxCell id="1" parent="0" /><mxCell id="label_Motivation" value="Motivation" style="text;html=1;align=center;verticalAlign=middle;resizable=0;points=[];" vertex="1" parent="1"><mxGeometry x="270.0" y="38.0" width="200" height="30" as="geometry" /></mxCell><mxCell id="elem_m1" value="Seamless, Secure, and Tailored Digital Experiences" style="html=1;outlineConnect=0;whiteSpace=wrap;fillColor=#CCCCFF;shape=mxgraph.archimate3.application;appType=goal;archiType=oct;" vertex="1" parent="1"><mxGeometry x="613.0" y="298.0" width="120" height="60" as="geometry" /></mxCell><mxCell id="elem_m2" value="Increased Customer Satisfaction, Engagement, and Loyalty" style="html=1;outlineConnect=0;whiteSpace=wrap;fillColor=#CCCCFF;shape=mxgraph.archimate3.application;appType=goal;archiType=oct;" vertex="1" parent="1"><mxGeometry x="370.0" y="118.0" width="120" height="60" as="geometry" /></mxCell><mxCell id="elem_m3" value="Improved Accessibility, Security, and Personalization" style="html=1;outlineConnect=0;whiteSpace=wrap;fillColor=#CCCCFF;shape=mxgraph.archimate3.application;appType=requirement;archiType=square;" vertex="1" parent="1"><mxGeometry x="613.0" y="478.0" width="120" height="60" as="geometry" /></mxCell><mxCell id="elem_m4" value="Increased User Engagement" style="html=1;outlineConnect=0;whiteSpace=wrap;fillColor=#CCCCFF;shape=mxgraph.archimate3.application;appType=outcome;archiType=oct;" vertex="1" parent="1"><mxGeometry x="127.0" y="298.0" width="120" height="60" as="geometry" /></mxCell><mxCell id="elem_m5" value="Higher Rate of Loan Applications through Digital Channels" style="html=1;outlineConnect=0;whiteSpace=wrap;fillColor=#CCCCFF;shape=mxgraph.archimate3.application;appType=outcome;archiType=oct;" vertex="1" parent="1"><mxGeometry x="289.0" y="298.0" width="120" height="60" as="geometry" /></mxCell><mxCell id="elem_m6" value="Improved NPS Scores for Digital Services" style="html=1;outlineConnect=0;whiteSpace=wrap;fillColor=#CCCCFF;shape=mxgraph.archimate3.application;appType=outcome;archiType=oct;" vertex="1" parent="1"><mxGeometry x="451.0" y="298.0" width="120" height="60" as="geometry" /></mxCell><mxCell id="conn_elem_m3_elem_m1" style="html=1;shape=mxgraph.archimate3.relationship;archiType=influence;" edge="1" source="elem_m3" target="elem_m1" parent="1"><mxGeometry relative="1" as="geometry" /></mxCell><mxCell id="conn_elem_m1_elem_m2" style="html=1;shape=mxgraph.archimate3.relationship;archiType=influence;" edge="1" source="elem_m1" target="elem_m2" parent="1"><mxGeometry relative="1" as="geometry" /></mxCell><mxCell id="conn_elem_m4_elem_m2" style="html=1;shape=mxgraph.archimate3.relationship;archiType=influence;" edge="1" source="elem_m4" target="elem_m2" parent="1"><mxGeometry relative="1" as="geometry" /></mxCell><mxCell id="conn_elem_m5_elem_m2" style="html=1;shape=mxgraph.archimate3.relationship;archiType=influence;" edge="1" source="elem_m5" target="elem_m2" parent="1"><mxGeometry relative="1" as="geometry" /></mxCell><mxCell id="conn_elem_m6_elem_m2" style="html=1;shape=mxgraph.archimate3.relationship;archiType=influence;" edge="1" source="elem_m6" target="elem_m2" parent="1"><mxGeometry relative="1" as="geometry" /></mxCell><mxCell id="label_Strategy" value="Strategy" style="text;html=1;align=center;verticalAlign=middle;resizable=0;points=[];" vertex="1" parent="1"><mxGeometry x="189.0" y="438.0" width="200" height="30" as="geometry" /></mxCell><mxCell id="elem_s1" value="AI-driven Financial Advisory" style="html=1;outlineConnect=0;whiteSpace=wrap;fillColor=#FFFFFF;shape=mxgraph.archimate3.rectangle;" vertex="1" parent="1"><mxGeometry x="289.0" y="698.0" width="120" height="60" as="geometry" /></mxCell><mxCell id="elem_s2" value="Personalized Insights" style="html=1;outlineConnect=0;whiteSpace=wrap;fillColor=#FFFFFF;shape=mxgraph.archimate3.rectangle;" vertex="1" parent="1"><mxGeometry x="208.0" y="518.0" width="120" height="60" as="geometry" /></mxCell><mxCell id="elem_s3" value="Customer Support through Chatbots" style="html=1;outlineConnect=0;whiteSpace=wrap;fillColor=#FFFFFF;shape=mxgraph.archimate3.rectangle;" vertex="1" parent="1"><mxGeometry x="370.0" y="518.0" width="120" height="60" as="geometry" /></mxCell><mxCell id="elem_s4" value="Machine Learning for Spending Pattern Analysis" style="html=1;outlineConnect=0;whiteSpace=wrap;fillColor=#FFFFFF;shape=mxgraph.archimate3.rectangle;" vertex="1" parent="1"><mxGeometry x="127.0" y="878.0" width="120" height="60" as="geometry" /></mxCell><mxCell id="elem_s5" value="Robust Security Measures" style="html=1;outlineConnect=0;whiteSpace=wrap;fillColor=#FFFFFF;shape=mxgraph.archimate3.rectangle;" vertex="1" parent="1"><mxGeometry x="289.0" y="878.0" width="120" height="60" as="geometry" /></mxCell><mxCell id="elem_s6" value="Business Banking Enhancement" style="html=1;outlineConnect=0;whiteSpace=wrap;fillColor=#FFFFFF;shape=mxgraph.archimate3.rectangle;" vertex="1" parent="1"><mxGeometry x="451.0" y="878.0" width="120" height="60" as="geometry" /></mxCell><mxCell id="conn_elem_s1_elem_s2" style="html=1;shape=mxgraph.archimate3.relationship;archiType=association;" edge="1" source="elem_s1" target="elem_s2" parent="1"><mxGeometry relative="1" as="geometry" /></mxCell><mxCell id="conn_elem_s1_elem_s3" style="html=1;shape=mxgraph.archimate3.relationship;archiType=association;" edge="1" source="elem_s1" target="elem_s3" parent="1"><mxGeometry relative="1" as="geometry" /></mxCell><mxCell id="conn_elem_s4_elem_s1" style="html=1;shape=mxgraph.archimate3.relationship;archiType=association;" edge="1" source="elem_s4" target="elem_s1" parent="1"><mxGeometry relative="1" as="geometry" /></mxCell><mxCell id="conn_elem_s5_elem_s1" style="html=1;shape=mxgraph.archimate3.relationship;archiType=association;" edge="1" source="elem_s5" target="elem_s1" parent="1"><mxGeometry relative="1" as="geometry" /></mxCell><mxCell id="conn_elem_s6_elem_s1" style="html=1;shape=mxgraph.archimate3.relationship;archiType=association;" edge="1" source="elem_s6" target="elem_s1" parent="1"><mxGeometry relative="1" as="geometry" /></mxCell><mxCell id="label_Business" value="Business" style="text;html=1;align=center;verticalAlign=middle;resizable=0;points=[];" vertex="1" parent="1"><mxGeometry x="513.0" y="838.0" width="200" height="30" as="geometry" /></mxCell><mxCell id="elem_b1" value="Unified Banking App" style="html=1;outlineConnect=0;whiteSpace=wrap;fillColor=#ffff99;shape=mxgraph.archimate3.application;appType=serv;archiType=rounded;" vertex="1" parent="1"><mxGeometry x="613.0" y="1098.0" width="120" height="60" as="geometry" /></mxCell><mxCell id="elem_b2" value="AI-driven Financial Advisory Process" style="html=1;outlineConnect=0;whiteSpace=wrap;fillColor=#ffff99;shape=mxgraph.archimate3.application;appType=proc;archiType=rounded;" vertex="1" parent="1"><mxGeometry x="127.0" y="918.0" width="120" height="60" as="geometry" /></mxCell><mxCell id="elem_b3" value="Personalized Insights Delivery" style="html=1;outlineConnect=0;whiteSpace=wrap;fillColor=#ffff99;shape=mxgraph.archimate3.application;appType=proc;archiType=rounded;" vertex="1" parent="1"><mxGeometry x="289.0" y="918.0" width="120" height="60" as="geometry" /></mxCell><mxCell id="elem_b4" value="Customer Support Process" style="html=1;outlineConnect=0;whiteSpace=wrap;fillColor=#ffff99;shape=mxgraph.archimate3.application;appType=proc;archiType=rounded;" vertex="1" parent="1"><mxGeometry x="451.0" y="918.0" width="120" height="60" as="geometry" /></mxCell><mxCell id="elem_b5" value="Fraud Detection Process" style="html=1;outlineConnect=0;whiteSpace=wrap;fillColor=#ffff99;shape=mxgraph.archimate3.application;appType=proc;archiType=rounded;" vertex="1" parent="1"><mxGeometry x="613.0" y="918.0" width="120" height="60" as="geometry" /></mxCell><mxCell id="elem_b6" value="Cash Flow Analysis" style="html=1;outlineConnect=0;whiteSpace=wrap;fillColor=#ffff99;shape=mxgraph.archimate3.application;appType=proc;archiType=rounded;" vertex="1" parent="1"><mxGeometry x="775.0" y="918.0" width="120" height="60" as="geometry" /></mxCell><mxCell id="elem_b7" value="Loan Recommendation Process" style="html=1;outlineConnect=0;whiteSpace=wrap;fillColor=#ffff99;shape=mxgraph.archimate3.application;appType=proc;archiType=rounded;" vertex="1" parent="1"><mxGeometry x="937.0" y="918.0" width="120" height="60" as="geometry" /></mxCell><mxCell id="elem_b8" value="Secure Fund Transfer Process" style="html=1;outlineConnect=0;whiteSpace=wrap;fillColor=#ffff99;shape=mxgraph.archimate3.application;appType=proc;archiType=rounded;" vertex="1" parent="1"><mxGeometry x="1099.0" y="918.0" width="120" height="60" as="geometry" /></mxCell><mxCell id="conn_elem_b1_elem_b2" style="html=1;shape=mxgraph.archimate3.relationship;archiType=association;" edge="1" source="elem_b1" target="elem_b2" parent="1"><mxGeometry relative="1" as="geometry" /></mxCell><mxCell id="conn_elem_b1_elem_b3" style="html=1;shape=mxgraph.archimate3.relationship;archiType=association;" edge="1" source="elem_b1" target="elem_b3" parent="1"><mxGeometry relative="1" as="geometry" /></mxCell><mxCell id="conn_elem_b1_elem_b4" style="html=1;shape=mxgraph.archimate3.relationship;archiType=association;" edge="1" source="elem_b1" target="elem_b4" parent="1"><mxGeometry relative="1" as="geometry" /></mxCell><mxCell id="conn_elem_b1_elem_b5" style="html=1;shape=mxgraph.archimate3.relationship;archiType=association;" edge="1" source="elem_b1" target="elem_b5" parent="1"><mxGeometry relative="1" as="geometry" /></mxCell><mxCell id="conn_elem_b1_elem_b6" style="html=1;shape=mxgraph.archimate3.relationship;archiType=association;" edge="1" source="elem_b1" target="elem_b6" parent="1"><mxGeometry relative="1" as="geometry" /></mxCell><mxCell id="conn_elem_b1_elem_b7" style="html=1;shape=mxgraph.archimate3.relationship;archiType=association;" edge="1" source="elem_b1" target="elem_b7" parent="1"><mxGeometry relative="1" as="geometry" /></mxCell><mxCell id="conn_elem_b1_elem_b8" style="html=1;shape=mxgraph.archimate3.relationship;archiType=association;" edge="1" source="elem_b1" target="elem_b8" parent="1"><mxGeometry relative="1" as="geometry" /></mxCell><mxCell id="label_Application" value="Application" style="text;html=1;align=center;verticalAlign=middle;resizable=0;points=[];" vertex="1" parent="1"><mxGeometry x="513.0" y="1238.0" width="200" height="30" as="geometry" /></mxCell><mxCell id="elem_a1" value="Banking App Platform" style="html=1;outlineConnect=0;whiteSpace=wrap;fillColor=#99ffff;shape=mxgraph.archimate3.application;appType=comp;archiType=square;" vertex="1" parent="1"><mxGeometry x="613.0" y="1498.0" width="120" height="60" as="geometry" /></mxCell><mxCell id="elem_a2" value="AI-driven Advisory Service" style="html=1;outlineConnect=0;whiteSpace=wrap;fillColor=#99ffff;shape=mxgraph.archimate3.application;appType=serv;archiType=rounded;" vertex="1" parent="1"><mxGeometry x="127.0" y="1318.0" width="120" height="60" as="geometry" /></mxCell><mxCell id="elem_a3" value="Personalized Insights Service" style="html=1;outlineConnect=0;whiteSpace=wrap;fillColor=#99ffff;shape=mxgraph.archimate3.application;appType=serv;archiType=rounded;" vertex="1" parent="1"><mxGeometry x="289.0" y="1318.0" width="120" height="60" as="geometry" /></mxCell><mxCell id="elem_a4" value="Chatbot Support Service" style="html=1;outlineConnect=0;whiteSpace=wrap;fillColor=#99ffff;shape=mxgraph.archimate3.application;appType=serv;archiType=rounded;" vertex="1" parent="1"><mxGeometry x="451.0" y="1318.0" width="120" height="60" as="geometry" /></mxCell><mxCell id="elem_a5" value="Fraud Detection Service" style="html=1;outlineConnect=0;whiteSpace=wrap;fillColor=#99ffff;shape=mxgraph.archimate3.application;appType=serv;archiType=rounded;" vertex="1" parent="1"><mxGeometry x="613.0" y="1318.0" width="120" height="60" as="geometry" /></mxCell><mxCell id="elem_a6" value="Cash Flow Analysis Service" style="html=1;outlineConnect=0;whiteSpace=wrap;fillColor=#99ffff;shape=mxgraph.archimate3.application;appType=serv;archiType=rounded;" vertex="1" parent="1"><mxGeometry x="775.0" y="1318.0" width="120" height="60" as="geometry" /></mxCell><mxCell id="elem_a7" value="Loan Recommendation Service" style="html=1;outlineConnect=0;whiteSpace=wrap;fillColor=#99ffff;shape=mxgraph.archimate3.application;appType=serv;archiType=rounded;" vertex="1" parent="1"><mxGeometry x="937.0" y="1318.0" width="120" height="60" as="geometry" /></mxCell><mxCell id="elem_a8" value="Secure Fund Transfer Service" style="html=1;outlineConnect=0;whiteSpace=wrap;fillColor=#99ffff;shape=mxgraph.archimate3.application;appType=serv;archiType=rounded;" vertex="1" parent="1"><mxGeometry x="1099.0" y="1318.0" width="120" height="60" as="geometry" /></mxCell><mxCell id="conn_elem_a1_elem_a2" style="html=1;shape=mxgraph.archimate3.relationship;archiType=association;" edge="1" source="elem_a1" target="elem_a2" parent="1"><mxGeometry relative="1" as="geometry" /></mxCell><mxCell id="conn_elem_a1_elem_a3" style="html=1;shape=mxgraph.archimate3.relationship;archiType=association;" edge="1" source="elem_a1" target="elem_a3" parent="1"><mxGeometry relative="1" as="geometry" /></mxCell><mxCell id="conn_elem_a1_elem_a4" style="html=1;shape=mxgraph.archimate3.relationship;archiType=association;" edge="1" source="elem_a1" target="elem_a4" parent="1"><mxGeometry relative="1" as="geometry" /></mxCell><mxCell id="conn_elem_a1_elem_a5" style="html=1;shape=mxgraph.archimate3.relationship;archiType=association;" edge="1" source="elem_a1" target="elem_a5" parent="1"><mxGeometry relative="1" as="geometry" /></mxCell><mxCell id="conn_elem_a1_elem_a6" style="html=1;shape=mxgraph.archimate3.relationship;archiType=association;" edge="1" source="elem_a1" target="elem_a6" parent="1"><mxGeometry relative="1" as="geometry" /></mxCell><mxCell id="conn_elem_a1_elem_a7" style="html=1;shape=mxgraph.archimate3.relationship;archiType=association;" edge="1" source="elem_a1" target="elem_a7" parent="1"><mxGeometry relative="1" as="geometry" /></mxCell><mxCell id="conn_elem_a1_elem_a8" style="html=1;shape=mxgraph.archimate3.relationship;archiType=association;" edge="1" source="elem_a1" target="elem_a8" parent="1"><mxGeometry relative="1" as="geometry" /></mxCell><mxCell id="label_Technology" value="Technology" style="text;html=1;align=center;verticalAlign=middle;resizable=0;points=[];" vertex="1" parent="1"><mxGeometry x="270.0" y="1638.0" width="200" height="30" as="geometry" /></mxCell><mxCell id="elem_t1" value="Mobile Device" style="html=1;outlineConnect=0;whiteSpace=wrap;fillColor=#AFFFAF;shape=mxgraph.archimate3.application;appType=node;archiType=square;" vertex="1" parent="1"><mxGeometry x="127.0" y="1898.0" width="120" height="60" as="geometry" /></mxCell><mxCell id="elem_t2" value="Server Infrastructure" style="html=1;outlineConnect=0;whiteSpace=wrap;fillColor=#AFFFAF;shape=mxgraph.archimate3.application;appType=node;archiType=square;" vertex="1" parent="1"><mxGeometry x="451.0" y="1898.0" width="120" height="60" as="geometry" /></mxCell><mxCell id="elem_t3" value="Biometric Authentication System" style="html=1;outlineConnect=0;whiteSpace=wrap;fillColor=#FFFFFF;shape=mxgraph.archimate3.rectangle;" vertex="1" parent="1"><mxGeometry x="127.0" y="1718.0" width="120" height="60" as="geometry" /></mxCell><mxCell id="elem_t4" value="Machine Learning Engine" style="html=1;outlineConnect=0;whiteSpace=wrap;fillColor=#FFFFFF;shape=mxgraph.archimate3.rectangle;" vertex="1" parent="1"><mxGeometry x="289.0" y="1718.0" width="120" height="60" as="geometry" /></mxCell><mxCell id="elem_t5" value="Data Processing Service" style="html=1;outlineConnect=0;whiteSpace=wrap;fillColor=#AFFFAF;shape=mxgraph.archimate3.application;appType=serv;archiType=rounded;" vertex="1" parent="1"><mxGeometry x="451.0" y="1718.0" width="120" height="60" as="geometry" /></mxCell><mxCell id="elem_t6" value="Security Service" style="html=1;outlineConnect=0;whiteSpace=wrap;fillColor=#AFFFAF;shape=mxgraph.archimate3.application;appType=serv;archiType=rounded;" vertex="1" parent="1"><mxGeometry x="613.0" y="1718.0" width="120" height="60" as="geometry" /></mxCell><mxCell id="conn_elem_t1_elem_t3" style="html=1;shape=mxgraph.archimate3.relationship;archiType=assignment;" edge="1" source="elem_t1" target="elem_t3" parent="1"><mxGeometry relative="1" as="geometry" /></mxCell><mxCell id="conn_elem_t2_elem_t4" style="html=1;shape=mxgraph.archimate3.relationship;archiType=assignment;" edge="1" source="elem_t2" target="elem_t4" parent="1"><mxGeometry relative="1" as="geometry" /></mxCell><mxCell id="conn_elem_t2_elem_t5" style="html=1;shape=mxgraph.archimate3.relationship;archiType=assignment;" edge="1" source="elem_t2" target="elem_t5" parent="1"><mxGeometry relative="1" as="geometry" /></mxCell><mxCell id="conn_elem_t2_elem_t6" style="html=1;shape=mxgraph.archimate3.relationship;archiType=assignment;" edge="1" source="elem_t2" target="elem_t6" parent="1"><mxGeometry relative="1" as="geometry" /></mxCell></root></mxGraphModel></diagram></mxfile>